<svg width="128" height="40" viewBox="0 0 128 40" fill="none" xmlns="http://www.w3.org/2000/svg">
<path fill-rule="evenodd" clip-rule="evenodd" d="M3.98821 40H35.9705C38.1699 40 39.9594 38.2089 39.9594 36.0082V3.99178C39.9594 1.79035 38.1699 0 35.9705 0H3.98821C1.78927 0 0 1.79035 0 3.99178V36.0082C0 38.2089 1.78927 40 3.98821 40ZM11.7346 24.9151C9.26115 24.9151 6.61905 24.1288 6.27942 22.5908C5.97422 20.8817 3.50053 21.5995 3.90715 23.0352C4.58477 26.4534 8.92152 27.1711 11.7346 27.1711C14.5477 27.1711 19.429 26.1115 19.429 21.8046C19.429 17.5533 15.5033 17.1935 11.7908 16.8533L11.7346 16.8482C11.5013 16.8305 11.2694 16.8146 11.0406 16.7989H11.0405C8.61119 16.6325 6.51599 16.489 6.51599 14.4896C6.51599 12.3704 9.46493 11.5159 11.4301 11.5159C12.9549 11.5159 15.8032 11.6526 16.548 13.6351C16.9883 14.934 19.326 14.2845 18.8528 12.7465C17.6653 9.67023 14.0394 9.22583 11.4301 9.22583C8.17667 9.22583 4.04277 10.7981 4.04277 14.4556C4.04277 18.6025 7.86658 18.9585 11.4842 19.2953L11.6339 19.3092L11.9472 19.3324C14.5717 19.5254 16.9532 19.7005 16.9532 21.8046C16.9532 24.1631 13.3953 24.9151 11.7346 24.9151ZM27.8526 14.082C25.1566 14.082 22.9642 16.2934 22.9642 19.0113C22.9642 21.2385 24.4363 23.1252 26.4512 23.734V21.449C26.4512 20.6698 27.079 20.0376 27.8519 20.0376C28.6249 20.0376 29.2503 20.6698 29.2503 21.449V23.7348C31.2653 23.1269 32.7386 21.2395 32.7386 19.0113C32.7386 16.2934 30.5462 14.082 27.8526 14.082ZM29.2503 26.6344C32.8221 25.9691 35.5366 22.8037 35.5366 19.0111C35.5366 14.7367 32.0888 11.2593 27.8516 11.2593C23.6121 11.2593 20.1642 14.7367 20.1642 19.0111C20.1642 22.8034 22.8782 25.9685 26.4512 26.6342V34.5895C26.4512 35.3689 27.079 36.0009 27.8519 36.0009C28.6249 36.0009 29.2503 35.3689 29.2503 34.5895V33.8019C29.2503 32.2379 31.8783 27.8376 35.4198 27.8376L35.4526 27.8357C35.6845 27.8227 35.8789 27.6439 35.9094 27.4036C35.9422 27.1335 35.7501 26.8881 35.4831 26.8552C35.0427 26.8011 34.5883 26.7697 34.1339 26.8073C33.6819 26.8453 33.2251 26.9169 32.7848 27.052C32.3468 27.1841 31.9158 27.3528 31.5059 27.5635C31.1007 27.7743 30.7095 28.0164 30.3394 28.2832C29.9553 28.5636 29.5922 28.8688 29.2503 29.1927V26.6344Z" fill="#148FCC"/>
<path d="M49.5675 24.3399H52.3646C53.3636 24.3399 53.8631 23.8599 53.8631 22.8999V21.6599C53.8631 20.6999 53.337 20.2199 52.2847 20.2199H49.5675C49.421 20.2199 49.3477 20.2866 49.3477 20.4199V24.1399C49.3477 24.2732 49.421 24.3399 49.5675 24.3399ZM49.5675 18.6199H52.1648C53.1771 18.6199 53.6833 18.1332 53.6833 17.1599V16.2399C53.6833 15.2799 53.1905 14.7999 52.2048 14.7999H49.5675C49.421 14.7999 49.3477 14.8666 49.3477 14.9999V18.4199C49.3477 18.5532 49.421 18.6199 49.5675 18.6199ZM47.4097 25.6599V13.4799C47.4097 13.2532 47.5229 13.1399 47.7493 13.1399H52.4845C53.4702 13.1399 54.2361 13.4066 54.7822 13.9399C55.3283 14.4732 55.6013 15.2266 55.6013 16.1999V17.1799C55.6013 18.3399 55.0552 19.0866 53.963 19.4199C54.4825 19.4866 54.9087 19.7132 55.2417 20.0999C55.588 20.4866 55.7612 21.0066 55.7612 21.6599V22.9399C55.7612 23.9132 55.4881 24.6666 54.942 25.1999C54.3959 25.7332 53.6367 25.9999 52.6643 25.9999H47.7493C47.5229 25.9999 47.4097 25.8866 47.4097 25.6599Z" fill="#148FCC"/>
<path d="M65.1468 13.1399H66.4055C66.6453 13.1399 66.7652 13.2466 66.7652 13.4599V22.8999C66.7652 23.8732 66.4854 24.6332 65.926 25.1799C65.3799 25.7266 64.6207 25.9999 63.6483 25.9999H61.4306C60.4582 25.9999 59.699 25.7266 59.1529 25.1799C58.6068 24.6332 58.3337 23.8732 58.3337 22.8999V13.4799C58.3337 13.2532 58.4469 13.1399 58.6734 13.1399H59.9321C60.1585 13.1399 60.2718 13.2532 60.2718 13.4799V22.8199C60.2718 23.8066 60.7513 24.2999 61.7103 24.2999H63.3486C64.321 24.2999 64.8071 23.8066 64.8071 22.8199V13.4799C64.8071 13.2532 64.9204 13.1399 65.1468 13.1399Z" fill="#148FCC"/>
<path d="M69.3154 22.8799V22.3599C69.3154 22.1332 69.4286 22.0199 69.655 22.0199H70.9337C71.1602 22.0199 71.2734 22.1332 71.2734 22.3599V22.7199C71.2734 23.2799 71.3933 23.6866 71.633 23.9399C71.8861 24.1799 72.299 24.2999 72.8718 24.2999H74.2504C74.8231 24.2999 75.236 24.1732 75.4891 23.9199C75.7422 23.6532 75.8687 23.2266 75.8687 22.6399V22.1799C75.8687 21.7532 75.7022 21.4199 75.3692 21.1799C75.0496 20.9266 74.65 20.7666 74.1704 20.6999C73.6909 20.6199 73.1648 20.5132 72.5921 20.3799C72.0193 20.2466 71.4932 20.0932 71.0137 19.9199C70.5341 19.7466 70.1279 19.4199 69.7949 18.9399C69.4752 18.4599 69.3154 17.8466 69.3154 17.0999V16.2599C69.3154 15.2866 69.5884 14.5266 70.1346 13.9799C70.694 13.4199 71.4599 13.1399 72.4322 13.1399H74.5501C75.5357 13.1399 76.3016 13.4199 76.8477 13.9799C77.4072 14.5266 77.6869 15.2866 77.6869 16.2599V16.6999C77.6869 16.9266 77.5737 17.0399 77.3472 17.0399H76.0685C75.8421 17.0399 75.7289 16.9266 75.7289 16.6999V16.4399C75.7289 15.8666 75.6023 15.4599 75.3493 15.2199C75.1095 14.9666 74.7032 14.8399 74.1305 14.8399H72.8718C72.299 14.8399 71.8861 14.9732 71.633 15.2399C71.3933 15.4932 71.2734 15.9332 71.2734 16.5599V17.1799C71.2734 17.7799 71.7063 18.1866 72.5721 18.3999C72.9583 18.4932 73.3779 18.5732 73.8308 18.6399C74.297 18.7066 74.7632 18.8066 75.2294 18.9399C75.6956 19.0732 76.1218 19.2532 76.5081 19.4799C76.8943 19.6932 77.2074 20.0266 77.4471 20.4799C77.6869 20.9199 77.8068 21.4599 77.8068 22.0999V22.8799C77.8068 23.8532 77.527 24.6199 76.9676 25.1799C76.4215 25.7266 75.6623 25.9999 74.6899 25.9999H72.4522C71.4798 25.9999 70.714 25.7266 70.1545 25.1799C69.5951 24.6199 69.3154 23.8532 69.3154 22.8799Z" fill="#148FCC"/>
<path d="M82.539 13.4799V25.6599C82.539 25.8866 82.4258 25.9999 82.1993 25.9999H80.9406C80.7142 25.9999 80.601 25.8866 80.601 25.6599V13.4799C80.601 13.2532 80.7142 13.1399 80.9406 13.1399H82.1993C82.4258 13.1399 82.539 13.2532 82.539 13.4799Z" fill="#148FCC"/>
<path d="M87.1329 25.9999H85.8942C85.6677 25.9999 85.5545 25.8866 85.5545 25.6599V13.4799C85.5545 13.2532 85.6677 13.1399 85.8942 13.1399H87.013C87.2261 13.1399 87.3727 13.2132 87.4526 13.3599L92.2877 22.0599H92.3676V13.4799C92.3676 13.2532 92.4808 13.1399 92.7072 13.1399H93.946C94.1724 13.1399 94.2856 13.2532 94.2856 13.4799V25.6599C94.2856 25.8866 94.1724 25.9999 93.946 25.9999H92.8671C92.654 25.9999 92.4808 25.8932 92.3476 25.6799L87.5525 17.0799H87.4726V25.6599C87.4726 25.8866 87.3593 25.9999 87.1329 25.9999Z" fill="#148FCC"/>
<path d="M103.936 25.9999H97.5425C97.3161 25.9999 97.2028 25.8866 97.2028 25.6599V13.4799C97.2028 13.2532 97.3161 13.1399 97.5425 13.1399H103.936C104.149 13.1399 104.256 13.2532 104.256 13.4799V14.4999C104.256 14.7266 104.149 14.8399 103.936 14.8399H99.3806C99.2208 14.8399 99.1409 14.9066 99.1409 15.0399V18.4199C99.1409 18.5532 99.2208 18.6199 99.3806 18.6199H103.237C103.476 18.6199 103.596 18.7332 103.596 18.9599V19.9799C103.596 20.2066 103.476 20.3199 103.237 20.3199H99.3806C99.2208 20.3199 99.1409 20.3866 99.1409 20.5199V24.0799C99.1409 24.2266 99.2208 24.2999 99.3806 24.2999H103.936C104.149 24.2999 104.256 24.4132 104.256 24.6399V25.6599C104.256 25.8866 104.149 25.9999 103.936 25.9999Z" fill="#148FCC"/>
<path d="M106.563 22.8799V22.3599C106.563 22.1332 106.676 22.0199 106.902 22.0199H108.181C108.407 22.0199 108.521 22.1332 108.521 22.3599V22.7199C108.521 23.2799 108.641 23.6866 108.88 23.9399C109.133 24.1799 109.546 24.2999 110.119 24.2999H111.498C112.07 24.2999 112.483 24.1732 112.736 23.9199C112.99 23.6532 113.116 23.2266 113.116 22.6399V22.1799C113.116 21.7532 112.95 21.4199 112.617 21.1799C112.297 20.9266 111.897 20.7666 111.418 20.6999C110.938 20.6199 110.412 20.5132 109.839 20.3799C109.267 20.2466 108.74 20.0932 108.261 19.9199C107.781 19.7466 107.375 19.4199 107.042 18.9399C106.723 18.4599 106.563 17.8466 106.563 17.0999V16.2599C106.563 15.2866 106.836 14.5266 107.382 13.9799C107.941 13.4199 108.707 13.1399 109.68 13.1399H111.797C112.783 13.1399 113.549 13.4199 114.095 13.9799C114.654 14.5266 114.934 15.2866 114.934 16.2599V16.6999C114.934 16.9266 114.821 17.0399 114.595 17.0399H113.316C113.089 17.0399 112.976 16.9266 112.976 16.6999V16.4399C112.976 15.8666 112.85 15.4599 112.597 15.2199C112.357 14.9666 111.951 14.8399 111.378 14.8399H110.119C109.546 14.8399 109.133 14.9732 108.88 15.2399C108.641 15.4932 108.521 15.9332 108.521 16.5599V17.1799C108.521 17.7799 108.954 18.1866 109.819 18.3999C110.206 18.4932 110.625 18.5732 111.078 18.6399C111.544 18.7066 112.01 18.8066 112.477 18.9399C112.943 19.0732 113.369 19.2532 113.755 19.4799C114.142 19.6932 114.455 20.0266 114.694 20.4799C114.934 20.9199 115.054 21.4599 115.054 22.0999V22.8799C115.054 23.8532 114.774 24.6199 114.215 25.1799C113.669 25.7266 112.91 25.9999 111.937 25.9999H109.7C108.727 25.9999 107.961 25.7266 107.402 25.1799C106.842 24.6199 106.563 23.8532 106.563 22.8799Z" fill="#148FCC"/>
<path d="M117.509 22.8799V22.3599C117.509 22.1332 117.622 22.0199 117.848 22.0199H119.127C119.353 22.0199 119.467 22.1332 119.467 22.3599V22.7199C119.467 23.2799 119.587 23.6866 119.826 23.9399C120.079 24.1799 120.492 24.2999 121.065 24.2999H122.444C123.016 24.2999 123.429 24.1732 123.682 23.9199C123.935 23.6532 124.062 23.2266 124.062 22.6399V22.1799C124.062 21.7532 123.895 21.4199 123.562 21.1799C123.243 20.9266 122.843 20.7666 122.364 20.6999C121.884 20.6199 121.358 20.5132 120.785 20.3799C120.213 20.2466 119.686 20.0932 119.207 19.9199C118.727 19.7466 118.321 19.4199 117.988 18.9399C117.668 18.4599 117.509 17.8466 117.509 17.0999V16.2599C117.509 15.2866 117.782 14.5266 118.328 13.9799C118.887 13.4199 119.653 13.1399 120.625 13.1399H122.743C123.729 13.1399 124.495 13.4199 125.041 13.9799C125.6 14.5266 125.88 15.2866 125.88 16.2599V16.6999C125.88 16.9266 125.767 17.0399 125.54 17.0399H124.262C124.035 17.0399 123.922 16.9266 123.922 16.6999V16.4399C123.922 15.8666 123.796 15.4599 123.542 15.2199C123.303 14.9666 122.896 14.8399 122.324 14.8399H121.065C120.492 14.8399 120.079 14.9732 119.826 15.2399C119.587 15.4932 119.467 15.9332 119.467 16.5599V17.1799C119.467 17.7799 119.9 18.1866 120.765 18.3999C121.152 18.4932 121.571 18.5732 122.024 18.6399C122.49 18.7066 122.956 18.8066 123.423 18.9399C123.889 19.0732 124.315 19.2532 124.701 19.4799C125.088 19.6932 125.401 20.0266 125.64 20.4799C125.88 20.9199 126 21.4599 126 22.0999V22.8799C126 23.8532 125.72 24.6199 125.161 25.1799C124.615 25.7266 123.855 25.9999 122.883 25.9999H120.645C119.673 25.9999 118.907 25.7266 118.348 25.1799C117.788 24.6199 117.509 23.8532 117.509 22.8799Z" fill="#148FCC"/>
</svg>
